<svg width="500" height="303" viewBox="0 0 500 303" fill="none" xmlns="http://www.w3.org/2000/svg">
<path d="M250 0.583336C269.339 0.583336 287.885 8.26561 301.56 21.9401C315.234 35.6147 322.917 54.1613 322.917 73.5C322.917 92.8387 315.234 111.385 301.56 125.06C287.885 138.734 269.339 146.417 250 146.417C230.661 146.417 212.115 138.734 198.44 125.06C184.766 111.385 177.083 92.8387 177.083 73.5C177.083 54.1613 184.766 35.6147 198.44 21.9401C212.115 8.26561 230.661 0.583336 250 0.583336ZM104.167 52.6667C115.833 52.6667 126.667 55.7917 136.042 61.4167C132.917 91.2083 141.667 120.792 159.583 143.917C149.167 163.917 128.333 177.667 104.167 177.667C87.5906 177.667 71.6935 171.082 59.9725 159.361C48.2515 147.64 41.6667 131.743 41.6667 115.167C41.6667 98.5906 48.2515 82.6935 59.9725 70.9725C71.6935 59.2515 87.5906 52.6667 104.167 52.6667ZM395.833 52.6667C412.409 52.6667 428.307 59.2515 440.028 70.9725C451.749 82.6935 458.333 98.5906 458.333 115.167C458.333 131.743 451.749 147.64 440.028 159.361C428.307 171.082 412.409 177.667 395.833 177.667C371.667 177.667 350.833 163.917 340.417 143.917C358.333 120.792 367.083 91.2083 363.958 61.4167C373.333 55.7917 384.167 52.6667 395.833 52.6667ZM114.583 266.208C114.583 223.083 175.208 188.083 250 188.083C324.792 188.083 385.417 223.083 385.417 266.208V302.667H114.583V266.208ZM0 302.667V271.417C0 242.458 39.375 218.083 92.7083 211C80.4167 225.167 72.9167 244.75 72.9167 266.208V302.667H0ZM500 302.667H427.083V266.208C427.083 244.75 419.583 225.167 407.292 211C460.625 218.083 500 242.458 500 271.417V302.667Z" fill="white"/>
</svg>
