<svg width="376" height="460" viewBox="0 0 376 460" fill="none" xmlns="http://www.w3.org/2000/svg">
<path d="M188 0.833332L0.5 84.1667V209.167C0.5 324.792 80.5 432.917 188 459.167C295.5 432.917 375.5 324.792 375.5 209.167V84.1667L188 0.833332ZM188 125.833C217.167 125.833 246.333 148.75 246.333 177.917V209.167C258.833 209.167 271.333 221.667 271.333 236.25V309.167C271.333 321.667 258.833 334.167 244.25 334.167H129.667C117.167 334.167 104.667 321.667 104.667 307.083V234.167C104.667 221.667 117.167 209.167 129.667 209.167V177.917C129.667 148.75 158.833 125.833 188 125.833ZM188 150.833C171.333 150.833 156.75 161.25 156.75 177.917V209.167H219.25V177.917C219.25 161.25 204.667 150.833 188 150.833Z" fill="white"/>
</svg>
