<svg width="406" height="418" viewBox="0 0 406 418" fill="none" xmlns="http://www.w3.org/2000/svg">
<path d="M203 281.917C183.661 281.917 165.115 274.234 151.44 260.56C137.766 246.885 130.083 228.339 130.083 209C130.083 189.661 137.766 171.115 151.44 157.44C165.115 143.766 183.661 136.083 203 136.083C222.339 136.083 240.885 143.766 254.56 157.44C268.234 171.115 275.917 189.661 275.917 209C275.917 228.339 268.234 246.885 254.56 260.56C240.885 274.234 222.339 281.917 203 281.917ZM357.792 229.208C358.625 222.542 359.25 215.875 359.25 209C359.25 202.125 358.625 195.25 357.792 188.167L401.75 154.208C405.708 151.083 406.75 145.458 404.25 140.875L362.583 68.7917C360.083 64.2083 354.458 62.3333 349.875 64.2083L298 85.0417C287.167 76.9167 275.917 69.8333 262.792 64.625L255.083 9.41666C254.25 4.41666 249.875 0.666656 244.667 0.666656H161.333C156.125 0.666656 151.75 4.41666 150.917 9.41666L143.208 64.625C130.083 69.8333 118.833 76.9167 108 85.0417L56.125 64.2083C51.5417 62.3333 45.9167 64.2083 43.4167 68.7917L1.75001 140.875C-0.958323 145.458 0.29168 151.083 4.25001 154.208L48.2084 188.167C47.375 195.25 46.75 202.125 46.75 209C46.75 215.875 47.375 222.542 48.2084 229.208L4.25001 263.792C0.29168 266.917 -0.958323 272.542 1.75001 277.125L43.4167 349.208C45.9167 353.792 51.5417 355.458 56.125 353.792L108 332.75C118.833 341.083 130.083 348.167 143.208 353.375L150.917 408.583C151.75 413.583 156.125 417.333 161.333 417.333H244.667C249.875 417.333 254.25 413.583 255.083 408.583L262.792 353.375C275.917 347.958 287.167 341.083 298 332.75L349.875 353.792C354.458 355.458 360.083 353.792 362.583 349.208L404.25 277.125C406.75 272.542 405.708 266.917 401.75 263.792L357.792 229.208Z" fill="white"/>
</svg>
