<svg width="418" height="380" viewBox="0 0 418 380" fill="none" xmlns="http://www.w3.org/2000/svg">
<path d="M349 247.5C356.292 229.792 360.25 210.833 360.25 190C360.25 175 357.958 160.625 354 147.292C340.458 150.417 326.292 152.083 311.5 152.083C247.75 152.083 191.292 120.625 156.917 72.0833C138.375 117.083 102.958 153.75 58.375 173.75C57.5417 178.958 57.5417 184.583 57.5417 190C57.5417 230.169 73.4988 268.693 101.903 297.097C130.307 325.501 168.831 341.458 209 341.458C230.875 341.458 251.917 336.667 270.875 328.125C282.75 350.833 288.167 362.083 287.75 362.083C253.583 373.542 227.125 379.167 209 379.167C158.583 379.167 110.458 359.375 75.0417 323.75C53.375 302.083 37.3333 275.625 28.375 246.875H0.666656V152.083H23.375C40.875 65.8333 117.333 0.833336 209 0.833336C259 0.833336 307.125 20.625 342.75 56.25C369.208 82.5 386.917 116.042 394.208 152.083H417.333V245.625V246.042V246.875H416.083L341.917 315L231.5 302.5V267.708H332.125L349 247.5ZM152.125 185.208C158.375 185.208 164.417 187.708 168.792 192.292C173.167 196.667 175.667 202.708 175.667 208.958C175.667 215.208 173.167 221.25 168.792 225.625C164.417 230 158.375 232.5 152.125 232.5C139 232.5 128.375 222.083 128.375 208.958C128.375 195.833 139 185.208 152.125 185.208ZM265.667 185.208C278.792 185.208 289.208 195.833 289.208 208.958C289.208 222.083 278.792 232.5 265.667 232.5C252.542 232.5 241.917 222.083 241.917 208.958C241.917 202.659 244.419 196.619 248.873 192.165C253.327 187.711 259.368 185.208 265.667 185.208Z" fill="white"/>
</svg>
