<svg width="376" height="334" viewBox="0 0 376 334" fill="none" xmlns="http://www.w3.org/2000/svg">
<path d="M375.5 312.833V271.167H104.667V312.833H375.5ZM375.5 187.833V146.167H104.667V187.833H375.5ZM104.667 62.8333H375.5V21.1667H104.667V62.8333ZM21.3333 21.1667V62.8333H63V21.1667H21.3333ZM0.5 21.1667C0.5 15.6413 2.69493 10.3423 6.60194 6.43527C10.5089 2.52827 15.808 0.333328 21.3333 0.333328H63C68.5253 0.333328 73.8244 2.52827 77.7314 6.43527C81.6384 10.3423 83.8333 15.6413 83.8333 21.1667V62.8333C83.8333 68.3587 81.6384 73.6577 77.7314 77.5647C73.8244 81.4717 68.5253 83.6667 63 83.6667H21.3333C15.808 83.6667 10.5089 81.4717 6.60194 77.5647C2.69493 73.6577 0.5 68.3587 0.5 62.8333V21.1667ZM21.3333 146.167V187.833H63V146.167H21.3333ZM0.5 146.167C0.5 140.641 2.69493 135.342 6.60194 131.435C10.5089 127.528 15.808 125.333 21.3333 125.333H63C68.5253 125.333 73.8244 127.528 77.7314 131.435C81.6384 135.342 83.8333 140.641 83.8333 146.167V187.833C83.8333 193.359 81.6384 198.658 77.7314 202.565C73.8244 206.472 68.5253 208.667 63 208.667H21.3333C15.808 208.667 10.5089 206.472 6.60194 202.565C2.69493 198.658 0.5 193.359 0.5 187.833V146.167ZM21.3333 271.167V312.833H63V271.167H21.3333ZM0.5 271.167C0.5 265.641 2.69493 260.342 6.60194 256.435C10.5089 252.528 15.808 250.333 21.3333 250.333H63C68.5253 250.333 73.8244 252.528 77.7314 256.435C81.6384 260.342 83.8333 265.641 83.8333 271.167V312.833C83.8333 318.359 81.6384 323.658 77.7314 327.565C73.8244 331.472 68.5253 333.667 63 333.667H21.3333C15.808 333.667 10.5089 331.472 6.60194 327.565C2.69493 323.658 0.5 318.359 0.5 312.833V271.167Z" fill="white"/>
</svg>
